#!OML:ASF H:\Terrain\Patient Classification 1\Animal1\Tuesday\Animal1.ASF
:FULLY-SPECIFIED
:DEGREES
667
root 15.9695 15.9013 -11.3642 4.8522 10.3611 -0.37046
lowerback 7.78242 -2.35574 -0.2935
upperback -8.5356 -2.76687 3.90679
thorax -13.5253 -1.02126 5.01582
lowerneck -13.5437 0.457963 -5.29942
upperneck 7.71365 0.751775 7.66653
head 4.4656 0.692656 3.30462
rclavicle 2.24627e-014 -1.90833e-014
rhumerus -8.27941 -0.136497 13.6073
rradius 23.9318
rwrist -33.6848
rhand -5.53296 10.4702
rfingers 7.12502
rthumb 20.2813 -18.4909
lclavicle 2.24627e-014 -1.90833e-014
lhumerus -22.4346 11.2833 -0.99073
lradius 20.6291
lwrist -23.0434
lhand 11.7476 48.5264
lfingers 7.12502
lthumb 36.782 74.6469
rfemur -22.1575 1.29761 30.2969
rtibia 40.6117
rfoot -21.7707 -35.8452
rtoes 26.8953
lfemur -43.7932 -15.4593 -3.49649
ltibia 63.6226
lfoot 19.8825 -7.46151
ltoes 27.4887
668
root 15.9656 15.9226 -11.3659 5.05712 10.2952 -0.38756
lowerback 7.47744 -2.37255 -0.277663
upperback -8.73273 -2.77643 4.00017
thorax -13.563 -1.01859 5.10553
lowerneck -13.2127 0.441788 -5.26423
upperneck 7.32851 0.734214 7.62099
head 4.29481 0.673763 3.27446
rclavicle 4.96962e-015 1.59028e-015
rhumerus -8.71779 1.12495 13.4856
rradius 24.0302
rwrist -34.4208
rhand -5.69876 10.5021
rfingers 7.12502
rthumb 20.1219 -18.4759
lclavicle 4.96962e-015 1.59028e-015
lhumerus -22.1498 11.1444 -0.949569
lradius 20.5446
lwrist -23.5679
lhand 11.466 48.336
lfingers 7.12502
lthumb 36.5154 74.5242
rfemur -22.138 1.57713 30.3089
rtibia 40.1392
rfoot -21.4074 -35.9606
rtoes 27.0226
lfemur -43.9154 -15.2659 -3.42766
ltibia 63.3686
lfoot 20.2672 -7.36879
ltoes 27.8159
669
root 15.9615 15.9494 -11.3668 5.26052 10.3264 -0.0979119
lowerback 7.22525 -2.39316 -0.513493
upperback -8.85079 -2.84043 3.98538
thorax -13.5277 -1.02699 5.22391
lowerneck -13.4238 0.330678 -5.48944
upperneck 7.18642 0.621203 7.80962
head 4.29232 0.626064 3.36308
rclavicle 5.08889e-014 -2.8625e-014
rhumerus -9.18596 1.7498 13.3691
rradius 24.0419
rwrist -34.7371
rhand -5.9659 10.1031
rfingers 7.12502
rthumb 19.8651 -18.9017
lclavicle 5.08889e-014 -2.8625e-014
lhumerus -21.7576 11.4742 -1.02759
lradius 20.4148
lwrist -24.631
lhand 11.6003 47.562
lfingers 7.12502
lthumb 36.6426 73.718
rfemur -22.047 1.72185 29.9845
rtibia 39.6252
rfoot -21.013 -36.0752
rtoes 26.1928
lfemur -43.947 -15.3376 -3.68948
ltibia 63.0398
lfoot 20.508 -7.20594
ltoes 27.6011
670
root 15.9548 15.9779 -11.3669 5.33254 10.3997 0.169474
lowerback 7.1702 -2.40367 -0.732622
upperback -8.92724 -2.88832 3.95065
thorax -13.5703 -1.02792 5.31881
lowerneck -13.648 0.202871 -5.65406
upperneck 6.86479 0.481585 8.03829
head 4.23966 0.56873 3.45032
rclavicle -3.77691e-015 -1.11319e-014
rhumerus -9.67504 1.18573 13.2392
rradius 23.8695
rwrist -33.801
rhand -6.17289 10.0232
rfingers 7.12502
rthumb 19.6661 -19.0021
lclavicle -3.77691e-015 -1.11319e-014
lhumerus -21.3332 11.1379 -0.910955
lradius 20.4076
lwrist -24.8486
lhand 11.6807 47.2059
lfingers 7.12502
lthumb 36.7186 73.3425
rfemur -21.7795 1.85955 29.6971
rtibia 39.0629
rfoot -20.7988 -36.2318
rtoes 25.4466
lfemur -43.7947 -15.4568 -3.94434
ltibia 62.6582
lfoot 20.746 -7.00394
ltoes 28.3772
671
root 15.949 16.0038 -11.3655 5.32188 10.4067 0.00367028
lowerback 7.12467 -2.4123 -0.530993
upperback -8.98986 -2.86213 4.02359
thorax -13.625 -1.0282 5.28338
lowerneck -13.6409 0.0790375 -5.62873
upperneck 6.36343 0.332574 8.07728
head 4.09614 0.494795 3.44166
rclavicle -8.34896e-015 -1.74931e-014
rhumerus -10.1647 0.626902 13.12
rradius 23.6809
rwrist -32.7942
rhand -5.91233 10.2432
rfingers 7.12502
rthumb 19.9166 -18.7562
lclavicle -8.34896e-015 -1.74931e-014
lhumerus -20.9362 10.6157 -0.750691
lradius 20.3526
lwrist -24.5985
lhand 11.5049 47.5421
lfingers 7.12502
lthumb 36.5523 73.721
rfemur -21.472 2.04527 29.8739
rtibia 38.4967
rfoot -20.5198 -36.3673
rtoes 25.9644
lfemur -43.6152 -15.3928 -3.73977
ltibia 62.2866
lfoot 21.0646 -6.85769
ltoes 29.5637
672
root 15.9448 16.0267 -11.3682 5.40726 10.4602 -0.109946
lowerback 7.02368 -2.44855 -0.354535
upperback -9.0487 -2.88162 4.0679
thorax -13.6361 -1.05144 5.23397
lowerneck -13.8789 -0.0791148 -5.63305
upperneck 6.0657 0.140534 8.14312
head 4.0578 0.406541 3.44822
rclavicle -9.54166e-015 3.33958e-014
rhumerus -10.7276 0.67683 13.0211
rradius 23.6309
rwrist -32.5937
rhand -5.50249 10.277
rfingers 7.12502
rthumb 20.3106 -18.681
lclavicle -9.54166e-015 3.33958e-014
lhumerus -20.4711 10.2312 -0.632981
lradius 20.3073
lwrist -24.5813
lhand 11.6836 47.9654
lfingers 7.12502
lthumb 36.7214 74.1014
rfemur -21.2991 2.15967 29.9939
rtibia 37.9372
rfoot -20.0199 -36.5661
rtoes 26.227
lfemur -43.5926 -15.4022 -3.55247
ltibia 61.9219
lfoot 21.4587 -6.70535
ltoes 30.2449
673
root 15.9398 16.05 -11.3733 5.5691 10.5182 0.212941
lowerback 6.95917 -2.50511 -0.665289
upperback -9.14878 -3.00492 4.03255
thorax -13.689 -1.07833 5.39411
lowerneck -14.0402 -0.20771 -5.79018
upperneck 5.69894 0.00421531 8.34765
head 3.98238 0.347848 3.52598
rclavicle -1.98785e-015 -1.59028e-015
rhumerus -11.2049 0.809468 12.9405
rradius 23.6017
rwrist -32.3521
rhand -5.14164 10.0236
rfingers 7.12502
rthumb 20.6573 -18.8971
lclavicle -1.98785e-015 -1.59028e-015
lhumerus -20.1281 9.93653 -0.546475
lradius 20.3725
lwrist -24.8075
lhand 11.6947 48.4428
lfingers 7.12502
lthumb 36.7319 74.5761
rfemur -21.1612 2.25781 29.6448
rtibia 37.3829
rfoot -19.4084 -36.7878
rtoes 25.3349
lfemur -43.5434 -15.5116 -3.86973
ltibia 61.5186
lfoot 21.6819 -6.78373
ltoes 29.3539
674
root 15.9329 16.069 -11.3782 5.71697 10.4412 0.367807
lowerback 6.89694 -2.55792 -0.858074
upperback -9.28852 -3.09615 4.08049
thorax -13.7955 -1.09346 5.57864
lowerneck -13.8338 -0.311168 -6.02749
upperneck 5.04484 -0.0806024 8.52645
head 3.75684 0.301237 3.60669
rclavicle 1.78906e-015 4.77083e-015
rhumerus -11.4802 0.808213 12.859
rradius 23.4787
rwrist -31.8045
rhand -4.71724 9.96336
rfingers 7.12502
rthumb 21.0651 -18.9125
lclavicle 1.78906e-015 4.77083e-015
lhumerus -19.9411 9.95627 -0.55951
lradius 20.3958
lwrist -25.2037
lhand 11.2684 48.7617
lfingers 7.12502
lthumb 36.3283 74.9968
rfemur -21.0307 2.50328 29.4611
rtibia 36.8576
rfoot -19.2214 -36.7695
rtoes 25.2606
lfemur -43.4679 -15.3845 -4.03099
ltibia 61.1327
lfoot 21.8213 -7.04686
ltoes 28.0228
675
root 15.9239 16.0888 -11.3812 5.83825 10.3643 0.33327
lowerback 6.79284 -2.60404 -0.804023
upperback -9.36476 -3.14531 4.13123
thorax -13.8161 -1.11759 5.6116
lowerneck -13.7361 -0.477968 -6.37375
upperneck 4.34616 -0.234233 8.84478
head 3.54265 0.22783 3.74551
rclavicle -6.95746e-015 1.59028e-014
rhumerus -11.8319 0.76189 12.7446
rradius 23.3241
rwrist -30.9665
rhand -4.23143 10.5856
rfingers 7.12502
rthumb 21.5317 -18.2376
lclavicle -6.95746e-015 1.59028e-014
lhumerus -19.6465 9.3652 -0.509308
lradius 20.427
lwrist -24.8888
lhand 11.1482 48.8024
lfingers 7.12502
lthumb 36.2145 75.0659
rfemur -20.8698 2.82337 29.4736
rtibia 36.3097
rfoot -19.5395 -36.6203
rtoes 26.9385
lfemur -43.3951 -15.2681 -3.93308
ltibia 60.7786
lfoot 22.0294 -6.93275
ltoes 28.2685
676
root 15.9155 16.114 -11.3844 6.06036 10.3273 0.491454
lowerback 6.61853 -2.62058 -0.885895
upperback -9.40662 -3.1883 4.06299
thorax -13.7502 -1.13697 5.57829
lowerneck -13.8778 -0.696444 -6.73836
upperneck 3.67553 -0.456403 9.36845
head 3.3846 0.136099 3.94998
rclavicle -9.34288e-015 -9.54166e-015
rhumerus -12.3832 0.555242 12.5875
rradius 23.1609
rwrist -30.0754
rhand -4.28483 10.93
rfingers 7.12502
rthumb 21.4804 -17.899
lclavicle -9.34288e-015 -9.54166e-015
lhumerus -19.2053 8.62115 -0.451897
lradius 20.5338
lwrist -24.4604
lhand 11.5515 48.569
lfingers 7.12502
lthumb 36.5963 74.7367
rfemur -20.7408 3.11123 29.2826
rtibia 35.6478
rfoot -19.1886 -36.7082
rtoes 27.5739
lfemur -43.3925 -15.3566 -4.0041
ltibia 60.424
lfoot 22.1558 -6.49834
ltoes 28.9164
677
root 15.9065 16.1326 -11.3948 6.32079 10.2912 0.369477
lowerback 6.45567 -2.64103 -0.745284
upperback -9.48418 -3.19442 4.08743
thorax -13.7453 -1.15249 5.52091
lowerneck -13.9526 -0.867471 -6.96385
upperneck 2.9481 -0.623335 9.74335
head 3.19511 0.0637994 4.08847
rclavicle -3.45885e-014 2.06736e-014
rhumerus -12.86 -0.0171737 12.4552
rradius 22.8493
rwrist -29.06
rhand -4.56581 11.0254
rfingers 7.12502
rthumb 21.2105 -17.8341
lclavicle -3.45885e-014 2.06736e-014
lhumerus -18.7996 8.62047 -0.526901
lradius 20.5917
lwrist -24.7701
lhand 11.6344 48.3377
lfingers 7.12502
lthumb 36.6748 74.4855
rfemur -20.7148 3.40901 29.3985
rtibia 34.8971
rfoot -18.2042 -36.9188
rtoes 27.0102
lfemur -43.5808 -15.3229 -3.74322
ltibia 60.1003
lfoot 22.3437 -6.26054
ltoes 29.194
678
root 15.8963 16.153 -11.4065 6.44869 10.2554 0.00944636
lowerback 6.44194 -2.68432 -0.388449
upperback -9.60122 -3.19246 4.17676
thorax -13.8917 -1.17576 5.4284
lowerneck -13.731 -0.987803 -7.12837
upperneck 2.17687 -0.732927 9.97218
head 2.94034 0.0052333 4.17358
rclavicle 1.31198e-014 -2.06736e-014
rhumerus -13.2752 0.00977943 12.362
rradius 22.6278
rwrist -28.5337
rhand -4.51634 11.1547
rfingers 7.12502
rthumb 21.2581 -17.6995
lclavicle 1.31198e-014 -2.06736e-014
lhumerus -18.4547 7.96294 -0.592935
lradius 20.649
lwrist -24.6117
lhand 11.6909 48.3516
lfingers 7.12502
lthumb 36.7283 74.4858
rfemur -20.5753 3.75436 29.7682
rtibia 34.1505
rfoot -17.8307 -36.9745
rtoes 27.3872
lfemur -43.6676 -15.2008 -3.26206
ltibia 59.7655
lfoot 22.4751 -6.22757
ltoes 29.1674
